<svg width="1792" height="1792" xmlns="http://www.w3.org/2000/svg">

 <g>
  <title>background</title>
  <rect fill="none" id="canvas_background" height="402" width="582" y="-1" x="-1"/>
 </g>
 <g>
  <title>Layer 1</title>
  <path fill="#bf0000" id="svg_1" d="m1024,1376l0,-192q0,-14 -9,-23t-23,-9l-192,0q-14,0 -23,9t-9,23l0,192q0,14 9,23t23,9l192,0q14,0 23,-9t9,-23zm256,-672q0,-88 -55.5,-163t-138.5,-116t-170,-41q-243,0 -371,213q-15,24 8,42l132,100q7,6 19,6q16,0 25,-12q53,-68 86,-92q34,-24 86,-24q48,0 85.5,26t37.5,59q0,38 -20,61t-68,45q-63,28 -115.5,86.5t-52.5,125.5l0,36q0,14 9,23t23,9l192,0q14,0 23,-9t9,-23q0,-19 21.5,-49.5t54.5,-49.5q32,-18 49,-28.5t46,-35t44.5,-48t28,-60.5t12.5,-81zm384,192q0,209 -103,385.5t-279.5,279.5t-385.5,103t-385.5,-103t-279.5,-279.5t-103,-385.5t103,-385.5t279.5,-279.5t385.5,-103t385.5,103t279.5,279.5t103,385.5z"/>
 </g>
</svg>